<?xml version="1.0" standalone="no"?>
<!DOCTYPE svg PUBLIC "-//W3C//DTD SVG 20010904//EN"
 "http://www.w3.org/TR/2001/REC-SVG-20010904/DTD/svg10.dtd">
<svg xmlns="http://www.w3.org/2000/svg" version="1.1" xmlns:xlink="http://www.w3.org/1999/xlink" xmlns:svgjs="http://svgjs.com/svgjs" height="50.61124954223632" width="37.35671217848103"><g id="SvgjsG1085" rel="mainfill" name="main_text" xmlns:name="mainText_mainfill" transform="translate(18.678356089240516,54.61124954223632)"><path fill="#1c1c1c" d="  "></path></g><defs id="SvgjsDefs1084"></defs><g id="SvgjsG1086" fill="#1c1c1c" rel="mainfill" name="symbol" xmlns:name="symbol_mainfill" transform="translate(-27.486210272330524,-24.310288253846124) scale(0.4650638324000432)"><path xmlns="http://www.w3.org/2000/svg" d="M99.08,147.747L99.08,147.747L99.08,147.747L99.08,147.747z M74.18,134.172L74.18,134.172L74.18,134.172L74.18,134.172z   M72.68,138.223c0.9-1.951,0-4.351,0.9-5.851c0.45,0.226,1.275,2.399,1.725,2.774c0.675,1.5,1.5,1.275,1.95,2.625l-0.9,0.451  c-0.225,0-0.9-0.226-1.05-0.226C73.955,138.072,73.73,138.223,72.68,138.223L72.68,138.223z M89.93,89.397L89.93,89.397  L89.93,89.397L89.93,89.397z M86.705,82.497L86.705,82.497L86.705,82.497L86.705,82.497z M70.505,59.097  C71.18,59.772,69.83,58.497,70.505,59.097L70.505,59.097z M69.68,57.597L69.68,57.597L69.68,57.597L69.68,57.597z M69.005,57.597  L69.005,57.597L69.005,57.597L69.005,57.597z M99.68,140.848c-0.675,0.449-0.675,0.449-1.275,0.449c-0.45,0-1.275,0.225-1.5,0.225  c-1.275,0.226-3.675,1.5-3.675,2.4c-0.45,0.9-0.675,1.95-0.225,3c0.675,1.051,0.9,1.275,2.175,1.051c0.9,0,0.675,0.225,1.5,0.225  l4.35-0.676c0.899-0.225,2.399-0.225,2.774-0.449c0.9-0.676,3.9-0.9,5.4-1.725c0.45-0.451,0.45-1.726,0.9-2.625  c0.9-0.9,2.4-0.451,3.449-0.451c1.951,0,4.951-0.449,6.9-0.899c0.45-0.226,1.051-0.226,1.051-0.226  c2.625-1.049,8.25-2.174,10.574-2.625c1.051,0,5.4,0,5.85-1.049c1.5-2.775-9.75-2.625-11.024-2.625c-2.399,0-4.95-0.226-7.351,0.449  c-3,0.676-2.625,1.051-5.174-0.449c-2.176-1.275-2.4-2.625-3-4.726c-1.051-3.899-1.051-2.175-0.226-6.3  c0.226-0.45,0-4.575-0.226-4.95c0-0.226-1.949-3.45-1.949-3.45c-1.5-1.5-3-7.125-4.35-9.3c-0.9-1.274-0.451-1.274-1.051-2.399  c-1.5-3.451-4.575-5.176-5.175-7.125c-0.45-0.9-4.35-4.125-4.575-4.575c0-0.45,0.225-0.675-0.225-0.675  c-1.275-0.225-3-1.725-4.125-2.625c-0.9-0.675-1.5-3.45-2.175-4.575c-0.675-1.725-1.05-2.775-0.45-4.725  c0.45-1.275,1.725-3.9,1.95-4.575l-0.15-10.725c-0.45-4.125,0.9-7.35-1.5-11.25c-1.725,0.225-2.175,0.675-3.675,2.4  c-0.225,0-0.225,0.225-0.45,0.225c-1.05,1.275-2.175,3.225-3,3.675c-0.225,0.225-0.225,0-0.225,0.225l0,0l-0.45,0.45  c-1.725,1.05-1.95,0.675-3.225,0.225c-0.9-0.225-0.9-0.225-1.725-0.225c-1.275,0.45-0.675,0.675-2.175,0.45  c-0.675-0.225-1.95-1.05-1.5-1.95c-0.45,0.225-0.675,0.675-0.9,0c-0.225-0.45-0.225-0.9,0-1.275l-0.675,0.675  c-0.225-0.675-0.225-0.45-0.675-0.9c-0.9-0.675-0.45-0.45-0.45-0.675c-0.45-0.45,0,0-0.225-0.225l-0.9-1.05  c-1.275-1.275-2.625-1.725-3.225-2.625c-1.5,2.175-1.95,4.125-1.95,6.9c0,2.625,0.225,7.8-0.225,10.125c0,0.225,0,1.5,0,1.95  c-0.225,3.45-0.225,3.225,1.05,6.3c1.05,3-0.45,7.35-1.5,10.125c-1.95,3.9-0.225,7.575-0.225,10.35c0,3.675,0.675,6.675,1.5,10.125  c0.225,0.676,0.45,1.051,0.675,1.726c0,0.45,0,1.05,0,1.726c0.225,0.674,0.45,0.674,0.45,1.274c0.225,0.45,0.225,1.05,0.45,1.5  c0.45,2.399,0.45,5.399,0.675,8.024c0.225,0.676,0.45,0.9,0.675,1.5c0.45,1.951,0.45,7.351,0.675,9.75  c0.225,1.726,1.275,5.625-0.225,6.9c-1.275,0.676-1.5,0-3,1.5c-0.9,0.9-1.275,2.176-0.45,3.225c0.9,1.275,1.95,1.051,3.45,1.051  c1.5,0.225,2.4,0.449,4.125,0c1.275-0.45,1.275-1.051,3-1.5c1.05-0.45,2.625-0.45,3.9-0.676c0,0.9,0,1.051,0.225,1.951  c0.45,0.899,0.45,0.674,0.225,1.5c1.275,0,0.675,0.449,4.725,0.449c0.9,0,3.9-0.225,4.35-0.675c2.4-1.95,0.45-4.351,2.4-6.899  c3.225,0.449,1.275,0.899,4.725,0l2.175-0.676C96.905,139.348,99.23,140.396,99.68,140.848z"></path></g></svg>