<?xml version="1.0" standalone="no"?>
<!DOCTYPE svg PUBLIC "-//W3C//DTD SVG 20010904//EN"
 "http://www.w3.org/TR/2001/REC-SVG-20010904/DTD/svg10.dtd">

<svg xmlns="http://www.w3.org/2000/svg" version="1.1" xmlns:xlink="http://www.w3.org/1999/xlink" xmlns:svgjs="http://svgjs.com/svgjs" height="174.76188392639165" width="315.45330810546875"><g id="SvgjsG1442" rel="mainfill" name="main_text" xmlns:name="mainText_mainfill" fill="#ffffff" transform="translate(-1.0439999103546143,116.42355365753178)"><path d="M27.434 14.558 l0 2.494 q0 0.986 -0.435 1.624 t-0.899 0.986 q-0.29 0.174 -0.493 0.464 t-0.319 0.754 q-1.798 9.918 -3.19 17.806 q-0.638 3.364 -1.189 6.583 t-1.015 5.742 t-0.754 4.06 t-0.29 1.595 q-0.29 0.522 -0.551 0.899 t-0.783 0.377 l-6.786 0 q-0.58 0 -0.87 -0.348 t-0.58 -1.276 l-6.032 -35.438 q-0.116 -0.58 -0.319 -0.812 t-0.551 -0.406 q-0.464 -0.232 -0.899 -0.928 t-0.435 -1.682 l0 -2.494 l10.556 0 l0 2.494 q0 1.044 -0.377 1.682 t-0.841 0.928 q-0.522 0.29 -0.29 1.218 l4.06 30.45 l4.408 -30.45 q0 -0.928 -0.522 -1.218 q-0.464 -0.29 -0.87 -0.928 t-0.406 -1.682 l0 -2.494 l10.672 0 z M39.060100000000006 44.66 l0 5.278 q0 1.16 0.87 1.827 t2.204 0.667 t2.204 -0.696 t0.87 -1.218 l0 -0.696 q0 -1.334 0.696 -2.291 t2.262 -0.957 l3.77 0 l0 3.828 q0 1.914 -0.754 3.364 t-2.059 2.436 t-3.103 1.508 t-3.886 0.522 q-2.146 0 -3.973 -0.638 t-3.132 -1.827 t-2.059 -2.929 t-0.754 -3.944 l0 -10.904 q0 -2.204 0.754 -3.944 t2.059 -2.929 t3.132 -1.798 t3.973 -0.609 t3.944 0.609 t3.103 1.798 t2.03 2.929 t0.725 3.944 l0 3.77 q0 2.9 -2.958 2.9 l-9.918 0 z M39.060100000000006 40.078 l5.974 0 l0 -2.32 q0 -1.044 -0.348 -1.682 t-0.841 -1.015 t-1.015 -0.493 t-0.812 -0.116 t-0.812 0.145 t-0.986 0.493 t-0.812 0.986 t-0.348 1.682 l0 2.32 z M68.8982 52.548 q0.348 0 0.609 0.029 t0.406 0.232 t0.232 0.667 t0.087 1.334 l0 1.16 q0 1.682 -1.102 1.972 q-2.378 0.522 -4.147 0.145 t-2.987 -1.305 t-1.827 -2.262 t-0.609 -2.726 l0 -17.052 l-2.9 0 l0 -2.552 q0 -1.856 0.609 -2.552 t2.291 -0.696 l0 -2.32 l0 -3.886 l0 0.348 q0 -3.828 1.653 -5.249 t5.249 -1.421 l0 6.322 l0 3.886 l0 2.32 l2.958 0 l0 1.972 q0 1.218 -0.145 1.972 t-0.493 1.16 t-0.928 0.551 t-1.392 0.145 l0 15.138 q0 1.16 0.464 2.001 t1.972 0.667 z M90.3843 40.019999999999996 q-1.566 0 -2.349 -0.899 t-0.783 -2.117 q0 -1.276 -0.928 -1.769 t-1.682 -0.493 q-0.348 0 -0.841 0.116 t-0.928 0.377 t-0.725 0.696 t-0.29 1.131 l0 12.412 q0 0.928 0.261 1.479 t0.696 0.87 t0.899 0.406 t0.928 0.087 q0.87 0 1.827 -0.493 t0.957 -1.537 l0 -0.522 q0 -1.334 0.783 -2.291 t2.349 -0.957 l3.596 0 l0 3.364 q0 1.856 -0.696 3.422 t-1.972 2.668 t-3.016 1.711 t-3.828 0.609 q-4.292 0 -6.989 -2.407 t-2.697 -6.873 l0 -10.904 q0 -4.466 2.697 -6.902 t6.989 -2.436 q2.088 0 3.857 0.696 t3.016 1.856 t1.943 2.639 t0.696 3.045 l0 3.016 l-3.77 0 l0 0 z M119.29440000000001 52.025999999999996 q0.464 0.29 0.957 1.131 t0.493 1.943 l0 2.842 l-5.684 0 q-0.696 0 -1.131 -0.522 t-0.551 -0.986 q-0.29 0.522 -0.812 0.841 t-1.189 0.551 t-1.363 0.319 t-1.276 0.087 q-2.61 0 -4.379 -0.725 t-2.813 -2.001 t-1.479 -2.958 t-0.435 -3.538 l0 -0.464 q0 -2.32 0.957 -3.799 t2.32 -2.407 t2.842 -1.45 t2.581 -0.928 q1.16 -0.464 1.885 -0.899 t1.189 -0.725 q0.464 -0.348 0.696 -0.696 l0 -1.45 q0 -0.58 -0.29 -0.986 t-0.725 -0.609 t-0.928 -0.29 t-0.899 -0.087 t-0.899 0.116 t-0.928 0.319 t-0.754 0.551 t-0.319 0.87 l0 -0.058 q0 0.638 -0.58 1.276 t-2.146 0.638 l-3.538 0 l0 -1.508 q0 -1.624 0.522 -3.045 t1.653 -2.436 t2.871 -1.595 t4.234 -0.58 q5.046 0 7.337 2.059 t2.291 5.597 l0 14.268 q0 0.464 0.029 0.812 t0.261 0.522 z M112.10240000000002 43.152 l-0.812 0.406 l-0.812 0.406 t-0.986 0.464 q-1.102 0.464 -2.088 1.334 t-0.986 2.842 l0 1.392 q0 1.74 0.812 2.523 t2.146 0.783 q0.986 0 1.914 -0.406 l0.812 -0.464 l0 -9.28 z M134.1105 52.49 q0.406 0.29 0.841 0.928 t0.435 1.74 l0 2.842 l-10.672 0 l0 -2.9 q0 -1.102 0.435 -1.74 t0.899 -0.928 q0.232 -0.174 0.377 -0.377 t0.203 -0.609 l0 -30.102 q-0.058 -0.696 -0.638 -1.044 q-0.464 -0.348 -0.87 -0.957 t-0.406 -1.653 l0 -3.074 l7.308 0 q1.45 0 1.45 1.392 l0 35.206 q0 0.58 0.174 0.812 t0.464 0.464 z M155.53860000000003 40.019999999999996 q-1.566 0 -2.349 -0.899 t-0.783 -2.117 q0 -1.276 -0.928 -1.769 t-1.682 -0.493 q-0.348 0 -0.841 0.116 t-0.928 0.377 t-0.725 0.696 t-0.29 1.131 l0 12.412 q0 0.928 0.261 1.479 t0.696 0.87 t0.899 0.406 t0.928 0.087 q0.87 0 1.827 -0.493 t0.957 -1.537 l0 -0.522 q0 -1.334 0.783 -2.291 t2.349 -0.957 l3.596 0 l0 3.364 q0 1.856 -0.696 3.422 t-1.972 2.668 t-3.016 1.711 t-3.828 0.609 q-4.292 0 -6.989 -2.407 t-2.697 -6.873 l0 -10.904 q0 -4.466 2.697 -6.902 t6.989 -2.436 q2.088 0 3.857 0.696 t3.016 1.856 t1.943 2.639 t0.696 3.045 l0 3.016 l-3.77 0 l0 0 z M186.53670000000002 52.432 q0.464 0.29 0.754 0.957 t0.29 1.769 l0 2.842 l-4.64 0 q-0.986 0 -1.363 -0.319 t-0.667 -0.899 q-0.406 0.406 -1.044 0.667 t-1.363 0.435 t-1.45 0.232 t-1.247 0.058 q-2.146 0 -4.002 -0.551 t-3.19 -1.653 t-2.117 -2.755 t-0.783 -3.857 l0 -13.456 q0 -0.464 -0.174 -0.725 t-0.464 -0.493 q-0.464 -0.29 -0.754 -0.928 t-0.29 -1.624 l0 -3.132 l6.612 0 q1.856 0 1.856 2.146 l0 18.212 q0 0.464 0.174 1.044 t0.551 1.073 t1.015 0.841 t1.624 0.348 q0.638 0 1.189 -0.116 t1.015 -0.29 q0.522 -0.232 0.986 -0.464 l0 -15.892 q0 -0.464 -0.203 -0.725 t-0.493 -0.493 q-0.986 -0.696 -0.986 -2.552 l0 -3.132 l6.67 0 q0.986 0 1.45 0.638 t0.464 1.276 l0 1.74 l0 3.799 t-0.029 4.785 t-0.029 4.756 l0 3.712 l0 1.566 q0.058 0.522 0.203 0.754 t0.435 0.406 z M200.94680000000002 52.49 q0.406 0.29 0.841 0.928 t0.435 1.74 l0 2.842 l-10.672 0 l0 -2.9 q0 -1.102 0.435 -1.74 t0.899 -0.928 q0.232 -0.174 0.377 -0.377 t0.203 -0.609 l0 -30.102 q-0.058 -0.696 -0.638 -1.044 q-0.464 -0.348 -0.87 -0.957 t-0.406 -1.653 l0 -3.074 l7.308 0 q1.45 0 1.45 1.392 l0 35.206 q0 0.58 0.174 0.812 t0.464 0.464 z M226.6089 52.025999999999996 q0.464 0.29 0.957 1.131 t0.493 1.943 l0 2.842 l-5.684 0 q-0.696 0 -1.131 -0.522 t-0.551 -0.986 q-0.29 0.522 -0.812 0.841 t-1.189 0.551 t-1.363 0.319 t-1.276 0.087 q-2.61 0 -4.379 -0.725 t-2.813 -2.001 t-1.479 -2.958 t-0.435 -3.538 l0 -0.464 q0 -2.32 0.957 -3.799 t2.32 -2.407 t2.842 -1.45 t2.581 -0.928 q1.16 -0.464 1.885 -0.899 t1.189 -0.725 q0.464 -0.348 0.696 -0.696 l0 -1.45 q0 -0.58 -0.29 -0.986 t-0.725 -0.609 t-0.928 -0.29 t-0.899 -0.087 t-0.899 0.116 t-0.928 0.319 t-0.754 0.551 t-0.319 0.87 l0 -0.058 q0 0.638 -0.58 1.276 t-2.146 0.638 l-3.538 0 l0 -1.508 q0 -1.624 0.522 -3.045 t1.653 -2.436 t2.871 -1.595 t4.234 -0.58 q5.046 0 7.337 2.059 t2.291 5.597 l0 14.268 q0 0.464 0.029 0.812 t0.261 0.522 z M219.41690000000003 43.152 l-0.812 0.406 l-0.812 0.406 t-0.986 0.464 q-1.102 0.464 -2.088 1.334 t-0.986 2.842 l0 1.392 q0 1.74 0.812 2.523 t2.146 0.783 q0.986 0 1.914 -0.406 l0.812 -0.464 l0 -9.28 z M244.267 52.548 q0.348 0 0.609 0.029 t0.406 0.232 t0.232 0.667 t0.087 1.334 l0 1.16 q0 1.682 -1.102 1.972 q-2.378 0.522 -4.147 0.145 t-2.987 -1.305 t-1.827 -2.262 t-0.609 -2.726 l0 -17.052 l-2.9 0 l0 -2.552 q0 -1.856 0.609 -2.552 t2.291 -0.696 l0 -2.32 l0 -3.886 l0 0.348 q0 -3.828 1.653 -5.249 t5.249 -1.421 l0 6.322 l0 3.886 l0 2.32 l2.958 0 l0 1.972 q0 1.218 -0.145 1.972 t-0.493 1.16 t-0.928 0.551 t-1.392 0.145 l0 15.138 q0 1.16 0.464 2.001 t1.972 0.667 z M260.2431 28.768 q2.088 0 3.915 0.696 t3.19 1.827 t2.117 2.61 t0.754 3.045 l0 12.876 q0 1.856 -0.754 3.422 t-2.117 2.668 t-3.19 1.711 t-3.915 0.609 q-2.146 0 -3.944 -0.522 t-3.132 -1.595 t-2.088 -2.726 t-0.754 -3.857 l0 -12.064 q0 -2.204 0.754 -3.857 t2.088 -2.726 t3.132 -1.595 t3.944 -0.522 z M260.2431 52.49 q1.566 0 2.349 -0.899 t0.783 -1.885 l0 -12.238 q0 -0.986 -0.754 -1.972 t-2.378 -0.986 q-1.566 0 -2.32 0.87 t-0.754 1.856 l0 12.528 q0 0.754 0.754 1.74 t2.32 0.986 z M291.9952 33.756 q0 0.812 -0.464 1.015 t-0.928 0.203 q-1.102 -0.058 -2.262 0.145 t-2.175 0.754 t-1.653 1.45 t-0.696 2.233 l0 11.658 q0 0.58 0.145 0.812 t0.435 0.464 q0.464 0.29 0.899 0.928 t0.435 1.74 l-0.058 2.842 l-10.73 0 l0 -2.9 q0 -1.102 0.435 -1.74 t0.899 -0.928 q0.29 -0.232 0.464 -0.464 t0.174 -0.87 l0 -15.428 q0 -0.29 -0.203 -0.551 t-0.435 -0.435 q-0.464 -0.29 -0.899 -0.928 t-0.435 -1.624 l0 -3.132 l7.424 0 q1.45 0 1.45 1.276 l0 1.102 q0.638 -0.522 1.334 -0.986 q0.638 -0.406 1.421 -0.812 t1.711 -0.58 q0.638 -0.116 1.363 -0.145 t1.305 0.087 t0.812 0.348 t0.232 1.16 l0 3.306 l0 0 z M306.5793 34.394 q-1.102 0 -1.769 0.551 t-0.667 1.537 l0 0.058 q0 0.928 0.928 1.624 t2.291 1.392 t2.958 1.479 t2.958 1.798 t2.291 2.349 t0.928 3.19 l0 1.74 q0 2.03 -0.725 3.538 t-2.001 2.523 t-3.016 1.508 t-3.77 0.493 q-2.088 0 -3.915 -0.551 t-3.161 -1.595 t-2.088 -2.523 t-0.754 -3.393 l0 -3.364 l3.074 0 q1.624 0 2.523 0.841 t0.899 2.465 l0 0.058 q0 0.928 0.812 1.711 t2.204 0.783 q1.276 0 2.146 -0.609 t0.87 -1.885 l0 -0.696 q0 -1.044 -0.899 -1.827 t-2.204 -1.508 t-2.871 -1.479 t-2.871 -1.74 t-2.204 -2.291 t-0.899 -3.161 l0 -1.798 q0 -1.45 0.667 -2.697 t1.885 -2.175 t2.958 -1.421 t3.886 -0.493 q2.088 0 3.77 0.667 t2.871 1.769 t1.798 2.552 t0.609 3.016 l0 2.784 l-2.784 0 q-1.798 0 -2.842 -0.696 t-1.044 -1.914 q0 -1.45 -0.928 -2.03 t-1.914 -0.58 z "></path></g><defs id="SvgjsDefs1441"></defs><g id="SvgjsG1443" rel="mainfill" name="symbol" xmlns:name="symbol_mainfill" fill="#ffffff" transform="translate(61.754006301838935,-37.51473285406769) scale(1.9343474577446576)"><path xmlns="http://www.w3.org/2000/svg" fill-rule="evenodd" clip-rule="evenodd" d="M98.823,75.627c-2.522,1.067-4.94,0.76-7.321-0.25  c-2.819-1.193-5.332-2.911-7.645-4.886c-0.957-0.817-1.573-1.05-2.39,0.131c-2.135,3.089-5.038,4.378-8.857,4.02  c-2.089-0.195-4.237,0.379-6.355,0.327c-1.414-0.032-3.233-0.065-3.146-2.285c0.032-0.791-0.476-0.705-0.898-0.881  c-0.852-0.361-2.166-0.01-2.322-1.47c-0.183-1.672,1.474-1.654,2.55-2.664c-4.666-2.179-9.232-2.047-13.876-0.824  c-2.739,0.72-5.475,1.411-8.328,1.52c-1.146,0.045-1.955-0.113-2.087-1.515c-0.558-5.973-3.697-10.571-7.838-14.658  c-1.728-1.703-3.289-3.574-4.925-5.371c-0.58-0.634-0.986-1.399-0.595-2.206c0.445-0.918,1.233-0.24,1.869-0.168  c4.51,0.498,8.673-0.498,12.363-3.116c1.127-0.802,1.982-1.159,3.222-0.322c2.749,1.859,5.958,2.372,9.13,3.042  c9.676,2.047,19.035,4.807,26.352,12.064c1.745,1.732,2.945,3.639,4.044,5.883c2.797,5.73,6.808,10.493,13.312,12.389  c1.159,0.336,2.342,0.587,3.511,0.886C98.65,75.288,98.68,75.401,98.823,75.627z"></path><path xmlns="http://www.w3.org/2000/svg" fill-rule="evenodd" clip-rule="evenodd" d="M18.185,72.476c-0.208,0.547-0.5,1.079-0.612,1.646  c-0.744,3.728-2.403,4.776-6.189,3.889c-0.619-0.146-1.189-0.31-1.292-1.042c-0.079-0.562,0.156-1.03,0.691-1.193  c1.787-0.552,1.735-2.018,1.775-3.445c0.157-5.661,0.456-11.324-2.48-16.542c-1.18-2.095-0.64-4.292,0.014-6.478  c1.47-4.924,0.496-6.139-4.993-6.431c-2.036-0.106-4.692-3.76-3.416-4.861c1.93-1.668,2.953-4.54,5.839-4.973  c1.841-0.277,2.949-0.993,2.493-3.867c4.381,6.347,9.957,10.557,13.485,16.527c1.811,3.067,4.52,5.437,6.981,7.982  c5.191,5.377,8.158,11.493,6.477,19.201c-0.248,1.136-0.247,2.289,1.393,2.44c4.512,0.413,8.989,1.616,13.563,0.443  c2.079-0.535,3.945-1.157,3.807-3.853c-0.024-0.494,0.034-1.049,0.721-1.106c0.72-0.057,1.15,0.419,1.368,0.995  c0.874,2.325,0.129,4.211-1.847,5.535c-2.158,1.45-4.678,2.01-7.222,1.938c-9.306-0.266-18.61-0.649-27.913-1.021  c-1.661-0.064-3.146-0.387-1.254-2.379C21.17,74.201,19.125,73.593,18.185,72.476z"></path><path xmlns="http://www.w3.org/2000/svg" fill-rule="evenodd" clip-rule="evenodd" d="M18.138,22.236c2.563,0.067,4.946-0.22,7.305-1.554  c2.282-1.288,8.438,0.948,9.539,3.309c1.215,2.604,4.097,3.931,4.498,7.295c1.023,8.574-0.348,10.168-8.012,11.858  c-1.603,0.354-3.219,0.31-4.835,0.067c-1.343-0.203-2.269-0.715-2.077-2.327c0.083-0.696-0.082-1.416-0.071-2.124  c0.071-4.109-0.398-7.391-5.788-8.022c-3.274-0.386-5.749-2.876-5.976-6.78c-0.075-1.29,0.44-1.661,1.466-1.708  C15.501,22.191,16.82,22.236,18.138,22.236z"></path></g></svg>